<svg width="40" height="40" viewBox="0 0 40 40" fill="none" xmlns="http://www.w3.org/2000/svg">
<path d="M20 1.33342L20.8667 0.320087C20.6252 0.113515 20.3178 0 20 0C19.6822 0 19.3748 0.113515 19.1333 0.320087L20 1.33342ZM1.33333 17.3334L0.466667 16.3201L0 16.7201V17.3334H1.33333ZM14.6667 38.6667V40C15.0203 40 15.3594 39.8595 15.6095 39.6095C15.8595 39.3594 16 39.0203 16 38.6667H14.6667ZM25.3333 38.6667H24C24 39.0203 24.1405 39.3594 24.3905 39.6095C24.6406 39.8595 24.9797 40 25.3333 40V38.6667ZM38.6667 17.3334H40V16.7201L39.5333 16.3201L38.6667 17.3334ZM4 40H14.6667V37.3333H4V40ZM39.5333 16.3201L20.8667 0.320087L19.1333 2.34675L37.8 18.3467L39.5333 16.3201ZM19.1333 0.320087L0.466667 16.3201L2.2 18.3467L20.8667 2.34675L19.1333 0.320087ZM16 38.6667V30.6667H13.3333V38.6667H16ZM24 30.6667V38.6667H26.6667V30.6667H24ZM25.3333 40H36V37.3333H25.3333V40ZM40 36V17.3334H37.3333V36H40ZM0 17.3334V36H2.66667V17.3334H0ZM20 26.6667C21.0609 26.6667 22.0783 27.0881 22.8284 27.8383C23.5786 28.5884 24 29.6058 24 30.6667H26.6667C26.6667 28.8986 25.9643 27.2029 24.714 25.9527C23.4638 24.7024 21.7681 24 20 24V26.6667ZM20 24C18.2319 24 16.5362 24.7024 15.286 25.9527C14.0357 27.2029 13.3333 28.8986 13.3333 30.6667H16C16 29.6058 16.4214 28.5884 17.1716 27.8383C17.9217 27.0881 18.9391 26.6667 20 26.6667V24ZM36 40C37.0609 40 38.0783 39.5786 38.8284 38.8284C39.5786 38.0783 40 37.0609 40 36H37.3333C37.3333 36.3536 37.1929 36.6928 36.9428 36.9428C36.6928 37.1929 36.3536 37.3333 36 37.3333V40ZM4 37.3333C3.64638 37.3333 3.30724 37.1929 3.05719 36.9428C2.80714 36.6928 2.66667 36.3536 2.66667 36H0C0 37.0609 0.421427 38.0783 1.17157 38.8284C1.92172 39.5786 2.93913 40 4 40V37.3333Z" fill="#949191"/>
</svg>
