<svg width="269" height="269" viewBox="0 0 269 269" fill="none" xmlns="http://www.w3.org/2000/svg">
<path d="M134.487 1.81714C61.2328 1.81714 1.85205 61.1979 1.85205 134.452C1.85205 207.707 61.2328 267.087 134.487 267.087C207.742 267.087 267.122 207.707 267.122 134.452C267.122 61.1979 207.742 1.81714 134.487 1.81714Z" stroke="#2C2C2C" stroke-width="3" stroke-linecap="round" stroke-linejoin="round"/>
<path d="M31.9734 218.623C31.9734 218.623 61.5378 180.875 134.487 180.875C207.436 180.875 237.014 218.623 237.014 218.623M134.487 134.452C145.04 134.452 155.161 130.26 162.623 122.798C170.085 115.336 174.278 105.215 174.278 94.6618C174.278 84.1086 170.085 73.9878 162.623 66.5256C155.161 59.0634 145.04 54.8712 134.487 54.8712C123.934 54.8712 113.813 59.0634 106.351 66.5256C98.8887 73.9878 94.6965 84.1086 94.6965 94.6618C94.6965 105.215 98.8887 115.336 106.351 122.798C113.813 130.26 123.934 134.452 134.487 134.452V134.452Z" stroke="#2C2C2C" stroke-width="3" stroke-linecap="round" stroke-linejoin="round"/>
</svg>
